<svg xmlns="http://www.w3.org/2000/svg" xmlns:xlink="http://www.w3.org/1999/xlink" viewBox="0 0 512 512" width="512" height="512" style="width: 100%; height: 100%; transform: translate3d(0,0,0);" preserveAspectRatio="xMidYMid meet"><defs><clipPath id="__lottie_element_7"><rect width="512" height="512" x="0" y="0"></rect></clipPath></defs><g clip-path="url(#__lottie_element_7)"><g style="display: block;" transform="matrix(1,0,0,1,0,0)" opacity="1"><g opacity="1" transform="matrix(1,0,0,1,0,0)"><path fill-rule="evenodd" fill="rgb(6,6,6)" fill-opacity="1" d=" M227,428.3890075683594 C227,428.3890075683594 227,447.7770080566406 227,447.7770080566406 C227,447.7770080566406 230.25,448.37701416015625 230.25,448.37701416015625 C234.39999389648438,449.14300537109375 277.43798828125,449.12701416015625 281.75,448.35699462890625 C281.75,448.35699462890625 285,447.7770080566406 285,447.7770080566406 C285,447.7770080566406 285,428.3890075683594 285,428.3890075683594 C285,417.7250061035156 284.8320007324219,409 284.62701416015625,409 C284.4219970703125,409 282.06201171875,409.9700012207031 279.3819885253906,411.1549987792969 C271.489013671875,414.6470031738281 265.0409851074219,415.97601318359375 256,415.97601318359375 C246.95899963378906,415.97601318359375 240.51100158691406,414.6470031738281 232.6179962158203,411.1549987792969 C229.93800354003906,409.9700012207031 227.5780029296875,409 227.3730010986328,409 C227.16799926757812,409 227,417.7250061035156 227,428.3890075683594 M282.93701171875,374.65301513671875 C282.0780029296875,374.885009765625 280.822998046875,376.6000061035156 280.14898681640625,378.4649963378906 C278.2879943847656,383.6109924316406 268.17401123046875,392.3320007324219 258.739990234375,396.92401123046875 C250.66600036621094,400.8550109863281 238.57699584960938,404 231.54200744628906,404 C229.593994140625,404 228,404.3890075683594 228,404.8630065917969 C228,406.0350036621094 238.4459991455078,410.6400146484375 244,411.9169921875 C250.60499572753906,413.43499755859375 262.73199462890625,413.22100830078125 269.4649963378906,411.4670104980469 C280.4590148925781,408.60400390625 291.6090087890625,400.78900146484375 298.0409851074219,391.44000244140625 C301.5320129394531,386.3659973144531 301.677001953125,384.62200927734375 298.9739990234375,380.19000244140625 C296.02899169921875,375.3590087890625 289.1409912109375,372.9809875488281 282.93701171875,374.65301513671875 M262.01300048828125,360.33099365234375 C259.31500244140625,361.2349853515625 258.0199890136719,362.5679931640625 256.2869873046875,366.2200012207031 C252.26699829101562,374.6929931640625 243.4720001220703,378.5589904785156 235.06500244140625,375.5469970703125 C235.06500244140625,375.5469970703125 230.63099670410156,373.9580078125 230.63099670410156,373.9580078125 C230.63099670410156,373.9580078125 227.8350067138672,377.0190124511719 227.8350067138672,377.0190124511719 C224.45700073242188,380.7179870605469 217.68600463867188,383.947998046875 213.25,383.9779968261719 C211.46299743652344,383.989990234375 210,384.37298583984375 210,384.8290100097656 C210,386.3999938964844 215.88699340820312,394.510009765625 219.77200317382812,398.2909851074219 C219.77200317382812,398.2909851074219 223.66799926757812,402.08099365234375 223.66799926757812,402.08099365234375 C223.66799926757812,402.08099365234375 233.0540008544922,400.94000244140625 233.0540008544922,400.94000244140625 C249.5959930419922,398.9289855957031 260.6210021972656,394.48699951171875 270.3689880371094,385.906005859375 C276.0060119628906,380.94500732421875 278.0010070800781,377.385009765625 277.9960021972656,372.29998779296875 C277.98699951171875,363.385009765625 270.22900390625,357.57501220703125 262.01300048828125,360.33099365234375 M258.64300537109375,332.02801513671875 C250.2689971923828,334.5379943847656 246.50399780273438,345.18798828125 250.927001953125,353.85699462890625 C253.3979949951172,358.70001220703125 255.58999633789062,360.57000732421875 257.25,359.25299072265625 C257.93798828125,358.7070007324219 260.2239990234375,357.7049865722656 262.3320007324219,357.0260009765625 C269.6780090332031,354.6579895019531 278.9830017089844,360.6629943847656 280.614990234375,368.82598876953125 C281.2229919433594,371.864990234375 281.3940124511719,371.96099853515625 285.13800048828125,371.36199951171875 C290.8210144042969,370.4530029296875 297.46600341796875,373.2799987792969 300.9490051269531,378.0880126953125 C300.9490051269531,378.0880126953125 303.7489929199219,381.9540100097656 303.7489929199219,381.9540100097656 C303.7489929199219,381.9540100097656 305.375,376.1610107421875 305.375,376.1610107421875 C307.64898681640625,368.0559997558594 307.43701171875,365.60101318359375 303.89300537109375,358.95098876953125 C297.635009765625,347.2099914550781 283.0840148925781,336.0799865722656 269.2969970703125,332.489013671875 C262.9320068359375,330.83099365234375 262.67401123046875,330.82000732421875 258.64300537109375,332.02801513671875 M217.79100036621094,327.2019958496094 C211.91000366210938,334.2090148925781 209.61900329589844,338.1820068359375 206.95399475097656,346 C204.14599609375,354.2330017089844 203.8820037841797,366.9599914550781 206.3459930419922,375.25 C206.3459930419922,375.25 208.05599975585938,381 208.05599975585938,381 C208.05599975585938,381 212.05999755859375,381 212.05999755859375,381 C217.25,381 221.7779998779297,379.0140075683594 225.42100524902344,375.1400146484375 C228.09800720214844,372.2929992675781 228.21200561523438,371.88800048828125 226.78700256347656,370.2669982910156 C219.5590057373047,362.0469970703125 217.61599731445312,344.7149963378906 222.01699829101562,327.7120056152344 C222.69900512695312,325.0780029296875 223.02699279785156,322.6940002441406 222.7469940185547,322.41400146484375 C222.46600341796875,322.13299560546875 220.23599243164062,324.2879943847656 217.79100036621094,327.2019958496094 M253.58900451660156,313.0769958496094 C248.1719970703125,319.5150146484375 251.82200622558594,331.04901123046875 258.6610107421875,329.10400390625 C260.2229919433594,328.6600036621094 262.3999938964844,328.4230041503906 263.5,328.5790100097656 C271.31298828125,329.67999267578125 273.85101318359375,330.3689880371094 279.3240051269531,332.875 C288.25201416015625,336.9620056152344 296.8810119628906,343.8970031738281 302.4100036621094,351.4289855957031 C305.0639953613281,355.0429992675781 307.3450012207031,358 307.4809875488281,358 C307.6159973144531,358 307.3059997558594,355.68499755859375 306.7919921875,352.8550109863281 C302.927001953125,331.5899963378906 286.2860107421875,315.0369873046875 264.6470031738281,310.9330139160156 C257.322998046875,309.54400634765625 256.4129943847656,309.72100830078125 253.58900451660156,313.0769958496094 M248,310.7640075683594 C243.86000061035156,311.3340148925781 233.7100067138672,314.87799072265625 230.3509979248047,316.927001953125 C227.55299377441406,318.6340026855469 226.9759979248047,319.8299865722656 225.16799926757812,327.67401123046875 C222.23500061035156,340.3970031738281 221.67599487304688,346.7950134277344 222.91099548339844,353.47601318359375 C224.44400024414062,361.7690124511719 227.58099365234375,367.69500732421875 231.9810028076172,370.6059875488281 C239.16400146484375,375.3599853515625 245.78900146484375,374.5679931640625 251.63699340820312,368.2569885253906 C254.5659942626953,365.09698486328125 254.62899780273438,362.8699951171875 251.85899353027344,360.4049987792969 C248.7729949951172,357.6600036621094 246.04400634765625,351.1340026855469 246.04400634765625,346.5 C246.04400634765625,342.1499938964844 248.74099731445312,335.2799987792969 251.2689971923828,333.18798828125 C252.6999969482422,332.0039978027344 252.61700439453125,331.5249938964844 250.42799377441406,328.2980041503906 C247.53199768066406,324.0320129394531 247.1320037841797,316.68499755859375 249.6020050048828,313.1579895019531 C251.468994140625,310.4930114746094 251.3419952392578,310.3039855957031 248,310.7640075683594 M341,359.6109924316406 C341,359.6109924316406 341,439.2229919433594 341,439.2229919433594 C341,439.2229919433594 344.75,438.5260009765625 344.75,438.5260009765625 C354.822998046875,436.656005859375 375.6340026855469,427.4739990234375 389.75,418.67401123046875 C389.75,418.67401123046875 398,413.5299987792969 398,413.5299987792969 C398,413.5299987792969 398,346.7650146484375 398,346.7650146484375 C398,346.7650146484375 398,280 398,280 C398,280 369.5,280 369.5,280 C369.5,280 341,280 341,280 C341,280 341,359.6109924316406 341,359.6109924316406 M227,297.5 C227,307.125 227.19900512695312,315 227.4429931640625,315 C227.68600463867188,315 229.40899658203125,314.10198974609375 231.27000427246094,313.00299072265625 C236.0030059814453,310.21099853515625 249.22999572753906,307 256,307 C262.7699890136719,307 275.99700927734375,310.21099853515625 280.7300109863281,313.00299072265625 C282.59100341796875,314.10198974609375 284.3139953613281,315 284.5570068359375,315 C284.8009948730469,315 285,307.125 285,297.5 C285,297.5 285,280 285,280 C285,280 256,280 256,280 C256,280 227,280 227,280 C227,280 227,297.5 227,297.5 M114,346.7650146484375 C114,346.7650146484375 114,413.5299987792969 114,413.5299987792969 C114,413.5299987792969 122.25,418.67401123046875 122.25,418.67401123046875 C136.36599731445312,427.4739990234375 157.177001953125,436.656005859375 167.25,438.5260009765625 C167.25,438.5260009765625 171,439.2229919433594 171,439.2229919433594 C171,439.2229919433594 171,359.6109924316406 171,359.6109924316406 C171,359.6109924316406 171,280 171,280 C171,280 142.5,280 142.5,280 C142.5,280 114,280 114,280 C114,280 114,346.7650146484375 114,346.7650146484375 M58.42599868774414,280.64300537109375 C57.090999603271484,289.5459899902344 58.70399856567383,322.7200012207031 60.99599838256836,333.5 C74.875,398.7820129394531 121.26699829101562,437.0559997558594 201.28199768066406,449.2359924316406 C214.08799743652344,451.18499755859375 219.52099609375,451.3999938964844 256,451.3999938964844 C292.47900390625,451.3999938964844 297.9119873046875,451.18499755859375 310.7179870605469,449.2359924316406 C357.8739929199219,442.0580139160156 391.46600341796875,426.7489929199219 416.2200012207031,401.1549987792969 C434.43701171875,382.3210144042969 445.010986328125,361.7510070800781 450.99700927734375,333.5 C453.322998046875,322.5260009765625 454.84100341796875,291.885986328125 453.56500244140625,281.67401123046875 C453.56500244140625,281.67401123046875 452.8559875488281,276 452.8559875488281,276 C452.8559875488281,276 255.98899841308594,276 255.98899841308594,276 C255.98899841308594,276 59.12300109863281,276 59.12300109863281,276 C59.12300109863281,276 58.42599868774414,280.64300537109375 58.42599868774414,280.64300537109375 M309,251.5 C309,251.5 309,257 309,257 C309,257 316.97698974609375,257 316.97698974609375,257 C324.3399963378906,257 325.0780029296875,256.8110046386719 326.55999755859375,254.5489959716797 C328.2250061035156,252.0070037841797 327.760986328125,248.1790008544922 325.614990234375,246.76499938964844 C325.00201416015625,246.36099243164062 321.0119934082031,246.0240020751953 316.75,246.01499938964844 C316.75,246.01499938964844 309,246 309,246 C309,246 309,251.5 309,251.5 M309,231.5 C309,231.5 309,236 309,236 C309,236 314.93499755859375,236 314.93499755859375,236 C322.86700439453125,236 326,234.7429962158203 326,231.55999755859375 C326,228.1540069580078 323.3590087890625,227 315.5660095214844,227 C315.5660095214844,227 309,227 309,227 C309,227 309,231.5 309,231.5 M298,242.5919952392578 C298,242.5919952392578 298,268.1830139160156 298,268.1830139160156 C298,268.1830139160156 312.75,267.8420104980469 312.75,267.8420104980469 C325.3080139160156,267.5509948730469 328.0050048828125,267.2030029296875 330.8949890136719,265.5 C335.5090026855469,262.7820129394531 338.03900146484375,259.125 338.6969909667969,254.2239990234375 C339.42498779296875,248.79600524902344 338.5920104980469,245.86399841308594 335.4200134277344,242.69200134277344 C335.4200134277344,242.69200134277344 332.79901123046875,240.0709991455078 332.79901123046875,240.0709991455078 C332.79901123046875,240.0709991455078 334.89898681640625,237.4010009765625 334.89898681640625,237.4010009765625 C337.4330139160156,234.17999267578125 337.6700134277344,228.19500732421875 335.4339904785156,223.8719940185547 C332.67498779296875,218.53700256347656 327.5220031738281,217.0469970703125 311.75,217.02200317382812 C311.75,217.02200317382812 298,217 298,217 C298,217 298,242.5919952392578 298,242.5919952392578 M173,242.5 C173,242.5 173,268 173,268 C173,268 178.5,268 178.5,268 C178.5,268 184,268 184,268 C184,268 184,257.5 184,257.5 C184,257.5 184,247 184,247 C184,247 191.5,247 191.5,247 C191.5,247 199,247 199,247 C199,247 199,241.5 199,241.5 C199,241.5 199,236 199,236 C199,236 191.5,236 191.5,236 C191.5,236 184,236 184,236 C184,236 184,232.02999877929688 184,232.02999877929688 C184,232.02999877929688 184,228.05999755859375 184,228.05999755859375 C184,228.05999755859375 196.75,227.77999877929688 196.75,227.77999877929688 C196.75,227.77999877929688 209.5,227.5 209.5,227.5 C209.5,227.5 209.802001953125,222.25 209.802001953125,222.25 C209.802001953125,222.25 210.10499572753906,217 210.10499572753906,217 C210.10499572753906,217 191.552001953125,217 191.552001953125,217 C191.552001953125,217 173,217 173,217 C173,217 173,242.5 173,242.5 M246.99400329589844,216.9340057373047 C238.97000122070312,219.375 233.8489990234375,224.5290069580078 231.41600036621094,232.61399841308594 C227.33700561523438,246.16600036621094 232.125,260.9620056152344 242.26300048828125,266.1340026855469 C247.36599731445312,268.73699951171875 257.1449890136719,269.010986328125 261.65899658203125,266.6759948730469 C264.76300048828125,265.0710144042969 271,258.6440124511719 271,257.0509948730469 C271,256.5669860839844 269.02099609375,255.06500244140625 266.6029968261719,253.71299743652344 C266.6029968261719,253.71299743652344 262.20599365234375,251.25599670410156 262.20599365234375,251.25599670410156 C262.20599365234375,251.25599670410156 259.2340087890625,254.22799682617188 259.2340087890625,254.22799682617188 C254.3560028076172,259.1050109863281 246.62600708007812,258.0450134277344 243.53900146484375,252.0749969482422 C238.56500244140625,242.45700073242188 242.33599853515625,228.96600341796875 250.4219970703125,227.44900512695312 C254.08399963378906,226.76199340820312 259.35400390625,228.87399291992188 260.33099365234375,231.42100524902344 C260.8210144042969,232.69700622558594 261.6390075683594,232.59300231933594 265.9289855957031,230.70799255371094 C268.6919860839844,229.4929962158203 270.9630126953125,227.93800354003906 270.97601318359375,227.25 C270.989013671875,226.56300354003906 269.27099609375,224.27099609375 267.15899658203125,222.15899658203125 C261.9779968261719,216.97799682617188 253.80799865722656,214.86099243164062 246.99400329589844,216.9340057373047 M198.41700744628906,157.91700744628906 C198.18800354003906,158.14599609375 198,168.83299255371094 198,181.66700744628906 C198,181.66700744628906 198,205 198,205 C198,205 226,205 226,205 C226,205 254,205 254,205 C254,205 254,181.25 254,181.25 C254,181.25 254,157.5 254,157.5 C254,157.5 226.41700744628906,157.5 226.41700744628906,157.5 C211.24600219726562,157.5 198.64599609375,157.68800354003906 198.41700744628906,157.91700744628906 M89.41699981689453,157.91700744628906 C89.18800354003906,158.14599609375 89,159.53199768066406 89,160.99600219726562 C89,165.99000549316406 81.98200225830078,189.70199584960938 76.49500274658203,203.25 C75.8280029296875,204.89599609375 77.75900268554688,205 108.89299774169922,205 C108.89299774169922,205 142,205 142,205 C142,205 142,181.25 142,181.25 C142,181.25 142,157.5 142,157.5 C142,157.5 115.91699981689453,157.5 115.91699981689453,157.5 C101.57099914550781,157.5 89.64600372314453,157.68800354003906 89.41699981689453,157.91700744628906 M264.7349853515625,60.926998138427734 C261.0140075683594,61.242000579833984 257.97601318359375,61.83700180053711 257.9849853515625,62.25 C257.9930114746094,62.66299819946289 258,94.94999694824219 258,134 C258,134 258,205 258,205 C258,205 266.5,205 266.5,205 C266.5,205 275,205 275,205 C275,205 275,132.5 275,132.5 C275,64.052001953125 274.9020080566406,60.0099983215332 273.25,60.176998138427734 C272.2879943847656,60.27399826049805 268.45599365234375,60.611000061035156 264.7349853515625,60.926998138427734 M434,57.04199981689453 C430.9750061035156,57.459999084472656 424.67498779296875,57.84700012207031 420,57.9010009765625 C420,57.9010009765625 411.5,58 411.5,58 C411.5,58 411.5,131.5 411.5,131.5 C411.5,131.5 411.5,205 411.5,205 C411.5,205 423.75,205 423.75,205 C430.4880065917969,205 436,204.81199645996094 436,204.58299255371094 C436,204.35400390625 435.0669860839844,201.99099731445312 433.9259948730469,199.33299255371094 C429.3219909667969,188.60699462890625 423.9679870605469,168.27999877929688 422.3800048828125,155.5 C420.3450012207031,139.1230010986328 421.0169982910156,116.84300231933594 423.9679870605469,102.84100341796875 C426.5050048828125,90.80599975585938 431.9259948730469,75.09200286865234 437.0719909667969,64.85700225830078 C441.1940002441406,56.65800094604492 441.46600341796875,55.91299819946289 440.25,56.14099884033203 C439.8370056152344,56.21799850463867 437.0249938964844,56.624000549316406 434,57.04199981689453 M372,129.8990020751953 C372,129.8990020751953 372,205 372,205 C372,205 382,205 382,205 C382,205 392,205 392,205 C392,205 392,131.07899475097656 392,131.07899475097656 C392,131.07899475097656 392,57.159000396728516 392,57.159000396728516 C392,57.159000396728516 389.25,56.63199996948242 389.25,56.63199996948242 C387.7380065917969,56.34199905395508 383.2380065917969,55.81100082397461 379.25,55.45100021362305 C379.25,55.45100021362305 372,54.797000885009766 372,54.797000885009766 C372,54.797000885009766 372,129.8990020751953 372,129.8990020751953 M136,55.05400085449219 C125.90799713134766,56.85599899291992 89.5780029296875,58.334999084472656 80.5,57.3129997253418 C75.55000305175781,56.75600051879883 71.35900115966797,56.4109992980957 71.18699645996094,56.547000885009766 C71.01499938964844,56.68199920654297 72.68299865722656,60.391998291015625 74.8949966430664,64.79000091552734 C78.73500061035156,72.42900085449219 84.71099853515625,88.6969985961914 87.00199890136719,97.75 C87.00199890136719,97.75 88.0770034790039,102 88.0770034790039,102 C88.0770034790039,102 115.03900146484375,102 115.03900146484375,102 C115.03900146484375,102 142,102 142,102 C142,102 142,78 142,78 C142,64.80000305175781 141.66200256347656,54.055999755859375 141.25,54.125 C140.83799743652344,54.194000244140625 138.47500610351562,54.61199951171875 136,55.05400085449219 M309.1520080566406,51.07099914550781 C306.760986328125,52.13199996948242 302.3739929199219,53.70800018310547 299.4020080566406,54.57099914550781 C299.4020080566406,54.57099914550781 294,56.141998291015625 294,56.141998291015625 C294,56.141998291015625 294,130.5709991455078 294,130.5709991455078 C294,130.5709991455078 294,205 294,205 C294,205 304,205 304,205 C304,205 314,205 314,205 C314,205 314,127 314,127 C314,84.0999984741211 313.8869934082031,49.03200149536133 313.75,49.07099914550781 C313.6130065917969,49.10900115966797 311.54400634765625,50.0099983215332 309.1520080566406,51.07099914550781 M198,75.53600311279297 C198,75.53600311279297 198,102 198,102 C198,102 226,102 226,102 C226,102 254,102 254,102 C254,102 254,81.5 254,81.5 C254,81.5 254,61 254,61 C254,61 248.75,60.99599838256836 248.75,60.99599838256836 C237.45199584960938,60.98699951171875 214.01300048828125,55.935001373291016 202.62600708007812,51.05400085449219 C202.62600708007812,51.05400085449219 198,49.07099914550781 198,49.07099914550781 C198,49.07099914550781 198,75.53600311279297 198,75.53600311279297 M333,122.5 C333,122.5 333,205 333,205 C333,205 343,205 343,205 C343,205 353,205 353,205 C353,205 353,126.73100280761719 353,126.73100280761719 C353,126.73100280761719 353,48.46200180053711 353,48.46200180053711 C353,48.46200180053711 343.75,44.224998474121094 343.75,44.224998474121094 C338.6629943847656,41.89500045776367 334.1629943847656,39.992000579833984 333.75,39.994998931884766 C333.3370056152344,39.99800109863281 333,77.125 333,122.5 M176.6439971923828,36.513999938964844 C173.23399353027344,39.01499938964844 156.6020050048828,45.8489990234375 147.5,48.4900016784668 C142.5500030517578,49.92499923706055 133.77499389648438,51.80500030517578 128,52.665000915527344 C114.63999938964844,54.65700149536133 81.0739974975586,54.95000076293945 72.14600372314453,53.15299987792969 C68.6520004272461,52.45000076293945 65.63700103759766,52.029998779296875 65.4469985961914,52.21900177001953 C65.25800323486328,52.409000396728516 67.8010025024414,57.95000076293945 71.0999984741211,64.53199768066406 C82.65799713134766,87.59400177001953 87.40299987792969,107.67900085449219 87.39399719238281,133.5 C87.38700103759766,156.906005859375 83.73100280761719,176.12600708007812 75.11000061035156,198.08799743652344 C75.11000061035156,198.08799743652344 71.21800231933594,208 71.21800231933594,208 C71.21800231933594,208 256,208 256,208 C256,208 440.7820129394531,208 440.7820129394531,208 C440.7820129394531,208 436.8450012207031,197.97300720214844 436.8450012207031,197.97300720214844 C432.4490051269531,186.7729949951172 427.7829895019531,169.5989990234375 425.8500061035156,157.5 C423.72698974609375,144.218994140625 424.2090148925781,118.47599792480469 426.82598876953125,105.27200317382812 C429.7179870605469,90.68199920654297 434.8330078125,76.05699920654297 441.5799865722656,63.082000732421875 C444.55999755859375,57.35200119018555 446.82000732421875,52.486000061035156 446.6029968261719,52.26900100708008 C446.385009765625,52.051998138427734 443.3479919433594,52.44499969482422 439.85400390625,53.143001556396484 C431.6319885253906,54.7859992980957 399.5069885253906,54.75899887084961 387,53.0989990234375 C369.843994140625,50.821998596191406 352.3999938964844,45.53200149536133 339.5509948730469,38.70899963378906 C333.9700012207031,35.74599838256836 332.8080139160156,35.44599914550781 331.2139892578125,36.5620002746582 C327.14801025390625,39.4109992980957 311.010009765625,46.96200180053711 302.8810119628906,49.82099914550781 C286.14801025390625,55.70399856567383 275.4049987792969,57.448001861572266 256,57.430999755859375 C236.86900329589844,57.41400146484375 229.26600646972656,56.26499938964844 212,50.78099822998047 C203.25,48.00199890136719 188.74099731445312,41.444000244140625 181.5,36.99599838256836 C178.92300415039062,35.41299819946289 178.23800659179688,35.345001220703125 176.6439971923828,36.513999938964844 M173,18.665000915527344 C159.86399841308594,27.040000915527344 143.7480010986328,32.8849983215332 127,35.347999572753906 C102.82499694824219,38.90399932861328 81.03199768066406,38.28900146484375 62.72800064086914,33.534000396728516 C57.665000915527344,32.21900177001953 53.46500015258789,31.224000930786133 53.393001556396484,31.32200050354004 C53.321998596191406,31.420000076293945 51.25299835205078,33.9900016784668 48.797000885009766,37.03300094604492 C40.082000732421875,47.827999114990234 40.27799987792969,46.86399841308594 45.32400131225586,54.13999938964844 C67.80500030517578,86.55500030517578 75.61499786376953,126.76899719238281 67.05000305175781,166.01199340820312 C61.09700012207031,193.28900146484375 46.23400115966797,223.29100036621094 27.67799949645996,245.48800659179688 C24.0049991607666,249.8820037841797 21,253.71499633789062 21,254.0070037841797 C21,254.2989959716797 25.5,259.02099609375 31,264.5 C31,264.5 41,274.4620056152344 41,274.4620056152344 C41,274.4620056152344 41.018001556396484,294.9809875488281 41.018001556396484,294.9809875488281 C41.05099868774414,331.3760070800781 46.14099884033203,354.3330078125 60.06100082397461,380.87200927734375 C84.7020034790039,427.8489990234375 134.593994140625,458.4100036621094 199.96200561523438,466.5690002441406 C206.26600646972656,467.3559875488281 213.78799438476562,468 216.67799377441406,468 C221.74099731445312,468 222.21400451660156,468.24700927734375 229.71600341796875,474.8160095214844 C238.6540069580078,482.64300537109375 255.2270050048828,496 256,496 C256.77301025390625,496 273.34600830078125,482.64300537109375 282.28399658203125,474.8160095214844 C289.7860107421875,468.24700927734375 290.2590026855469,468 295.3219909667969,468 C298.2120056152344,468 305.7340087890625,467.3559875488281 312.0379943847656,466.5690002441406 C392.6759948730469,456.5039978027344 448.10198974609375,413.08599853515625 465.3139953613281,346.5 C469.59600830078125,329.9360046386719 471,317.1820068359375 471,294.8529968261719 C471,294.8529968261719 471,274.4620056152344 471,274.4620056152344 C471,274.4620056152344 481,264.5 481,264.5 C486.5,259.02099609375 490.9939880371094,254.3040008544922 490.9859924316406,254.0189971923828 C490.97900390625,253.73300170898438 488.46600341796875,250.5749969482422 485.40301513671875,247 C471.7120056152344,231.02000427246094 456.7309875488281,204.44500732421875 449.9809875488281,184.16400146484375 C434.802001953125,138.55799865722656 440.22601318359375,93.6709976196289 465.4750061035156,55.948001861572266 C471.79998779296875,46.499000549316406 471.9670104980469,47.888999938964844 463.2030029296875,37.03300094604492 C460.74700927734375,33.9900016784668 458.6780090332031,31.420000076293945 458.60699462890625,31.32200050354004 C458.5350036621094,31.224000930786133 454.3349914550781,32.21900177001953 449.2720031738281,33.534000396728516 C430.9679870605469,38.28900146484375 409.17498779296875,38.90399932861328 385,35.347999572753906 C368.3269958496094,32.895999908447266 353.614990234375,27.648000717163086 339.6820068359375,19.18400001525879 C339.6820068359375,19.18400001525879 332.97601318359375,15.109999656677246 332.97601318359375,15.109999656677246 C332.97601318359375,15.109999656677246 327.2380065917969,18.91900062561035 327.2380065917969,18.91900062561035 C307.05499267578125,32.319000244140625 279.04901123046875,41 256,41 C232.91000366210938,41 204.94700622558594,32.32099914550781 184.6790008544922,18.864999771118164 C181.47799682617188,16.73900032043457 178.7779998779297,15.03600025177002 178.6790008544922,15.079000473022461 C178.58099365234375,15.123000144958496 176.02499389648438,16.73699951171875 173,18.665000915527344 M175.4029998779297,3.556999921798706 C170.23800659179688,7.664999961853027 156.9720001220703,14.854999542236328 148.5,18.138999938964844 C135.29100036621094,23.257999420166016 124.66999816894531,25.03499984741211 103.5,25.667999267578125 C82.04399871826172,26.309999465942383 72.51699829101562,25.163999557495117 57.85499954223633,20.177000045776367 C57.85499954223633,20.177000045776367 49.391998291015625,17.29800033569336 49.391998291015625,17.29800033569336 C49.391998291015625,17.29800033569336 41.44599914550781,27.865999221801758 41.44599914550781,27.865999221801758 C37.07600021362305,33.678001403808594 32.060001373291016,40.59000015258789 30.301000595092773,43.22700119018555 C30.301000595092773,43.22700119018555 27.101999282836914,48.02000045776367 27.101999282836914,48.02000045776367 C27.101999282836914,48.02000045776367 32.64400100708008,55.744998931884766 32.64400100708008,55.744998931884766 C47.069000244140625,75.85099792480469 54.75600051879883,94.39900207519531 58.077999114990234,117.12000274658203 C59.72100067138672,128.3560028076172 58.68600082397461,151.843994140625 56.03499984741211,163.5 C49.013999938964844,194.36599731445312 33.74700164794922,223.0070037841797 11.772000312805176,246.53700256347656 C11.772000312805176,246.53700256347656 4.671000003814697,254.14100646972656 4.671000003814697,254.14100646972656 C4.671000003814697,254.14100646972656 17.08300018310547,266.5830078125 17.08300018310547,266.5830078125 C17.08300018310547,266.5830078125 29.4950008392334,279.0249938964844 29.4950008392334,279.0249938964844 C29.4950008392334,279.0249938964844 29.170000076293945,292.2619934082031 29.170000076293945,292.2619934082031 C28.395000457763672,323.90301513671875 34.685001373291016,355.1470031738281 46.90299987792969,380.3389892578125 C73.86399841308594,435.9330139160156 129.52000427246094,470.5249938964844 204.85400390625,478.510986328125 C204.85400390625,478.510986328125 218.20799255371094,479.9259948730469 218.20799255371094,479.9259948730469 C218.20799255371094,479.9259948730469 226.85400390625,487.281005859375 226.85400390625,487.281005859375 C231.60899353027344,491.32598876953125 239.77499389648438,497.96600341796875 245,502.0360107421875 C250.22500610351562,506.10699462890625 254.83799743652344,509.9020080566406 255.25,510.468994140625 C255.76499938964844,511.177001953125 256.2349853515625,511.177001953125 256.75,510.468994140625 C257.1629943847656,509.9020080566406 261.7749938964844,506.10699462890625 267,502.0360107421875 C272.2250061035156,497.96600341796875 280.3909912109375,491.32598876953125 285.14599609375,487.281005859375 C285.14599609375,487.281005859375 293.7919921875,479.9259948730469 293.7919921875,479.9259948730469 C293.7919921875,479.9259948730469 307.14599609375,478.510986328125 307.14599609375,478.510986328125 C396.14801025390625,469.07598876953125 458.06201171875,421.7380065917969 476.49200439453125,349.031005859375 C480.7879943847656,332.0840148925781 482.1610107421875,320.739990234375 482.5409851074219,299.06500244140625 C482.5409851074219,299.06500244140625 482.8999938964844,278.6300048828125 482.8999938964844,278.6300048828125 C482.8999938964844,278.6300048828125 495.114013671875,266.385009765625 495.114013671875,266.385009765625 C495.114013671875,266.385009765625 507.3290100097656,254.14100646972656 507.3290100097656,254.14100646972656 C507.3290100097656,254.14100646972656 500.2279968261719,246.53700256347656 500.2279968261719,246.53700256347656 C477.76800537109375,222.48699951171875 462.27301025390625,192.94500732421875 455.3630065917969,161 C452.57598876953125,148.11399841308594 452.7850036621094,118.87699890136719 455.7560119628906,106.19499969482422 C459.8710021972656,88.6259994506836 467.572998046875,72.16799926757812 479.3819885253906,55.70800018310547 C479.3819885253906,55.70800018310547 484.95098876953125,47.946998596191406 484.95098876953125,47.946998596191406 C484.95098876953125,47.946998596191406 480.3529968261719,41.2239990234375 480.3529968261719,41.2239990234375 C477.8240051269531,37.5260009765625 474.0780029296875,32.474998474121094 472.02801513671875,30 C469.9779968261719,27.524999618530273 467.0799865722656,23.634000778198242 465.5870056152344,21.354000091552734 C465.5870056152344,21.354000091552734 462.87200927734375,17.20800018310547 462.87200927734375,17.20800018310547 C462.87200927734375,17.20800018310547 454.2770080566406,20.131999969482422 454.2770080566406,20.131999969482422 C439.6440124511719,25.108999252319336 429.9599914550781,26.301000595092773 409,25.70400047302246 C398.0719909667969,25.39299964904785 387.0820007324219,24.503000259399414 382.1499938964844,23.5310001373291 C367.2929992675781,20.601999282836914 351.49798583984375,13.932000160217285 339.25299072265625,5.415999889373779 C339.25299072265625,5.415999889373779 333.0060119628906,1.0709999799728394 333.0060119628906,1.0709999799728394 C333.0060119628906,1.0709999799728394 328.15899658203125,4.671999931335449 328.15899658203125,4.671999931335449 C314.1440124511719,15.086999893188477 295.3999938964844,23.54800033569336 278.5,27.08799934387207 C267.08099365234375,29.479999542236328 246.61099243164062,29.64299964904785 234.96800231933594,27.43400001525879 C218.54800415039062,24.31999969482422 197.406005859375,14.961999893188477 184.19200134277344,4.960000038146973 C181.31399536132812,2.7820000648498535 178.8560028076172,1.0210000276565552 178.72999572753906,1.0470000505447388 C178.60299682617188,1.0729999542236328 177.10699462890625,2.2019999027252197 175.4029998779297,3.556999921798706"></path></g></g></g></svg>