<svg xmlns="http://www.w3.org/2000/svg" xmlns:xlink="http://www.w3.org/1999/xlink" viewBox="0 0 512 512" width="512" height="512" style="width: 100%; height: 100%; transform: translate3d(0,0,0);" preserveAspectRatio="xMidYMid meet"><defs><clipPath id="__lottie_element_2"><rect width="512" height="512" x="0" y="0"></rect></clipPath></defs><g clip-path="url(#__lottie_element_2)"><g style="display: block;" transform="matrix(2.874119997024536,0,0,2.874119997024536,-21.352569580078125,-19.352569580078125)" opacity="1"><g opacity="1" transform="matrix(1,0,0,1,96.37799835205078,96.62200164794922)"><path fill="rgb(0,0,0)" fill-opacity="1" d=" M23.93400001525879,-84.24099731445312 C16.045000076293945,-78.76399993896484 8.440999984741211,-76.21399688720703 0.0020000000949949026,-76.21399688720703 C-8.437999725341797,-76.21399688720703 -16.04400062561035,-78.76399993896484 -23.933000564575195,-84.24099731445312 C-23.933000564575195,-84.24099731445312 -25.988000869750977,-85.66799926757812 -25.988000869750977,-85.66799926757812 C-25.988000869750977,-85.66799926757812 -28.073999404907227,-84.28600311279297 -28.073999404907227,-84.28600311279297 C-36.99100112915039,-78.38200378417969 -44.23400115966797,-77.302001953125 -55.28900146484375,-77.302001953125 C-59.099998474121094,-77.302001953125 -63.196998596191406,-78.02200317382812 -67.13800048828125,-79.38300323486328 C-67.13800048828125,-79.38300323486328 -69.76399993896484,-80.28900146484375 -69.76399993896484,-80.28900146484375 C-69.76399993896484,-80.28900146484375 -71.36100006103516,-78.01699829101562 -71.36100006103516,-78.01699829101562 C-72.21099853515625,-76.80899810791016 -72.84100341796875,-76.04199981689453 -73.45099639892578,-75.30000305175781 C-74.2030029296875,-74.38600158691406 -74.91400146484375,-73.52300262451172 -75.74700164794922,-72.18199920654297 C-75.74700164794922,-72.18199920654297 -77.08300018310547,-70.03500366210938 -77.08300018310547,-70.03500366210938 C-77.08300018310547,-70.03500366210938 -75.56300354003906,-68.01499938964844 -75.56300354003906,-68.01499938964844 C-68.80699920654297,-59.0369987487793 -66.25700378417969,-49.80099868774414 -66.25700378417969,-41.10599899291992 C-66.25700378417969,-24.89299964904785 -75.12300109863281,-10.565999984741211 -82.1050033569336,-3.321000099182129 C-82.1050033569336,-3.321000099182129 -84.62000274658203,-0.7099999785423279 -84.62000274658203,-0.7099999785423279 C-84.62000274658203,-0.7099999785423279 -82.05400085449219,1.8509999513626099 -82.05400085449219,1.8509999513626099 C-80.677001953125,3.2249999046325684 -78.22699737548828,5.76800012588501 -76.1989974975586,7.89900016784668 C-76.20500183105469,7.98199987411499 -76.27999877929688,9.017000198364258 -76.27999877929688,9.017000198364258 C-76.27999877929688,9.017000198364258 -76.2969970703125,9.220000267028809 -76.2969970703125,9.220000267028809 C-76.38099670410156,10.795000076293945 -76.42400360107422,12.345999717712402 -76.42400360107422,13.873000144958496 C-76.42400360107422,30.339000701904297 -71.55699920654297,44.02799987792969 -61.92599868774414,54.61600112915039 C-50.775001525878906,66.875 -33.3390007019043,74.19400024414062 -12.732999801635742,75.33300018310547 C-7.616000175476074,79.99299621582031 -2.4159998893737793,83.86100006103516 -2.183000087738037,84.03399658203125 C-2.183000087738037,84.03399658203125 0.019999999552965164,85.66799926757812 0.019999999552965164,85.66799926757812 C0.019999999552965164,85.66799926757812 2.2200000286102295,84.02899932861328 2.2200000286102295,84.02899932861328 C2.4509999752044678,83.85600280761719 7.622000217437744,79.99099731445312 12.734000205993652,75.33300018310547 C33.34000015258789,74.19400024414062 50.7760009765625,66.875 61.926998138427734,54.61600112915039 C71.55799865722656,44.02799987792969 76.42500305175781,30.33799934387207 76.42500305175781,13.87399959564209 C76.42500305175781,12.345999717712402 76.38300323486328,10.795000076293945 76.29900360107422,9.220000267028809 C76.29900360107422,9.220000267028809 76.2959976196289,9.184000015258789 76.2959976196289,9.184000015258789 C76.2959976196289,9.184000015258789 76.27799987792969,8.982000350952148 76.27799987792969,8.982000350952148 C76.27799987792969,8.982000350952148 76.20600128173828,7.98199987411499 76.19999694824219,7.900000095367432 C78.0770034790039,5.927000045776367 80.60800170898438,3.2950000762939453 82.05500030517578,1.850000023841858 C82.05500030517578,1.850000023841858 84.62000274658203,-0.7099999785423279 84.62000274658203,-0.7099999785423279 C84.62000274658203,-0.7099999785423279 82.10600280761719,-3.321000099182129 82.10600280761719,-3.321000099182129 C75.125,-10.565999984741211 66.25900268554688,-24.89299964904785 66.25900268554688,-41.106998443603516 C66.25900268554688,-49.80099868774414 68.80799865722656,-59.03799819946289 75.56300354003906,-68.01499938964844 C75.56300354003906,-68.01499938964844 77.08300018310547,-70.03399658203125 77.08300018310547,-70.03399658203125 C77.08300018310547,-70.03399658203125 75.7490005493164,-72.18000030517578 75.7490005493164,-72.18000030517578 C74.91500091552734,-73.52200317382812 74.20500183105469,-74.38600158691406 73.4520034790039,-75.30000305175781 C72.84300231933594,-76.04199981689453 72.21099853515625,-76.80899810791016 71.36299896240234,-78.01699829101562 C71.36299896240234,-78.01699829101562 69.76599884033203,-80.28900146484375 69.76599884033203,-80.28900146484375 C69.76599884033203,-80.28900146484375 67.14099884033203,-79.38300323486328 67.14099884033203,-79.38300323486328 C63.19900131225586,-78.02200317382812 59.10200119018555,-77.302001953125 55.29100036621094,-77.302001953125 C44.236000061035156,-77.302001953125 36.99100112915039,-78.38200378417969 28.075000762939453,-84.28600311279297 C28.075000762939453,-84.28600311279297 25.98900032043457,-85.66799926757812 25.98900032043457,-85.66799926757812 C25.98900032043457,-85.66799926757812 23.93400001525879,-84.24099731445312 23.93400001525879,-84.24099731445312z"></path></g><g opacity="1" transform="matrix(1,0,0,1,96.37799835205078,96.552001953125)"><path fill="rgb(237,187,0)" fill-opacity="1" d=" M0.014999999664723873,81.14099884033203 C0.014999999664723873,81.14099884033203 -5.875,76.77200317382812 -11.196999549865723,71.8010025024414 C-46.00899887084961,70.35800170898438 -74.81500244140625,50.834999084472656 -72.61399841308594,9.486000061035156 C-72.48400115966797,8.395000457763672 -72.59500122070312,8.468999862670898 -72.40599822998047,6.607999801635742 C-74.4020004272461,4.495999813079834 -77.7040023803711,1.0509999990463257 -79.447998046875,-0.6899999976158142 C-66.96099853515625,-13.647000312805176 -52.38999938964844,-43.2869987487793 -72.61499786376953,-70.16300201416016 C-71.28500366210938,-72.3010025024414 -70.3219985961914,-73.01000213623047 -68.34300231933594,-75.82499694824219 C-64.3010025024414,-74.42900085449219 -59.805999755859375,-73.54299926757812 -55.290000915527344,-73.54299926757812 C-43.69200134277344,-73.54299926757812 -35.77299880981445,-74.69400024414062 -26.03700065612793,-81.14099884033203 C-18.34000015258789,-75.7979965209961 -9.994000434875488,-72.45500183105469 0.0010000000474974513,-72.45500183105469 C9.994999885559082,-72.45500183105469 18.340999603271484,-75.7979965209961 26.03700065612793,-81.14099884033203 C35.77199935913086,-74.69400024414062 43.691001892089844,-73.54299926757812 55.290000915527344,-73.54299926757812 C59.80500030517578,-73.54299926757812 64.302001953125,-74.42900085449219 68.34400177001953,-75.82499694824219 C70.322998046875,-73.01000213623047 71.28600311279297,-72.3010025024414 72.61499786376953,-70.16300201416016 C52.391998291015625,-43.2869987487793 66.96299743652344,-13.647000312805176 79.447998046875,-0.6899999976158142 C77.7040023803711,1.0509999990463257 74.4020004272461,4.495999813079834 72.40599822998047,6.607999801635742 C72.59400177001953,8.468999862670898 72.48400115966797,8.395000457763672 72.61399841308594,9.486000061035156 C74.81500244140625,50.834999084472656 46.007999420166016,70.35800170898438 11.197999954223633,71.8010025024414 C5.875999927520752,76.77200317382812 0.014999999664723873,81.14099884033203 0.014999999664723873,81.14099884033203z"></path></g><g opacity="1" transform="matrix(1,0,0,1,96.37799835205078,133.16299438476562)"><path fill="rgb(0,0,0)" fill-opacity="1" d=" M-66.01100158691406,-29.590999603271484 C-66.01100158691406,-29.590999603271484 -66.5009994506836,-29.590999603271484 -66.5009994506836,-29.590999603271484 C-66.5009994506836,-29.590999603271484 -66.71199798583984,-27.812999725341797 -66.71199798583984,-27.812999725341797 C-66.71199798583984,-27.812999725341797 -66.86299896240234,-26.66699981689453 -66.86299896240234,-26.66699981689453 C-67.67500305175781,-10.73900032043457 -63.702999114990234,2.128999948501587 -55.06100082397461,11.607999801635742 C-45.14799880981445,22.481000900268555 -29.09000015258789,28.676000595092773 -8.619000434875488,29.52400016784668 C-8.598999977111816,29.524999618530273 -8.274999618530273,29.525999069213867 -8.274999618530273,29.525999069213867 C-2.132999897003174,29.55900001525879 3.6679999828338623,29.590999603271484 8.602999687194824,29.52400016784668 C29.089000701904297,28.674999237060547 45.14899826049805,22.481000900268555 55.06100082397461,11.607999801635742 C63.702999114990234,2.128999948501587 67.67400360107422,-10.73900032043457 66.86399841308594,-26.63800048828125 C66.86199951171875,-26.66699981689453 66.70999908447266,-27.81800079345703 66.70999908447266,-27.81800079345703 C66.70999908447266,-27.81800079345703 66.50299835205078,-29.56999969482422 66.50299835205078,-29.56999969482422 C66.50299835205078,-29.56999969482422 66.01000213623047,-29.590999603271484 66.01000213623047,-29.590999603271484 C66.01000213623047,-29.590999603271484 -66.01100158691406,-29.590999603271484 -66.01100158691406,-29.590999603271484z"></path></g><g opacity="1" transform="matrix(1,0,0,1,39.41600036621094,127.13600158691406)"><path fill="rgb(0,77,152)" fill-opacity="1" d=" M-8.557000160217285,-22.45800018310547 C-8.602999687194824,-22.062000274658203 -8.656999588012695,-21.614999771118164 -8.656999588012695,-21.614999771118164 C-8.656999588012695,-21.614999771118164 -8.79699993133545,-20.554000854492188 -8.798999786376953,-20.554000854492188 C-8.866000175476074,-19.22599983215332 -8.899999618530273,-17.920000076293945 -8.899999618530273,-16.63599967956543 C-8.899999618530273,-2.8389999866485596 -5,8.425000190734863 2.7179999351501465,16.889999389648438 C4.563000202178955,18.913000106811523 6.627999782562256,20.770999908447266 8.899999618530273,22.45800018310547 C8.899999618530273,22.45800018310547 8.899999618530273,-22.45800018310547 8.899999618530273,-22.45800018310547 C-1.5199999809265137,-22.45800018310547 -8.336999893188477,-22.45800018310547 -8.557000160217285,-22.45800018310547z"></path></g><g opacity="1" transform="matrix(1,0,0,1,153.34100341796875,127.13600158691406)"><path fill="rgb(0,77,152)" fill-opacity="1" d=" M8.798999786376953,-20.524999618530273 C8.798999786376953,-20.524999618530273 8.656000137329102,-21.6200008392334 8.656000137329102,-21.6200008392334 C8.656000137329102,-21.6200008392334 8.604000091552734,-22.06399917602539 8.557000160217285,-22.45800018310547 C8.336000442504883,-22.45800018310547 1.5190000534057617,-22.45800018310547 -8.901000022888184,-22.45800018310547 C-8.901000022888184,-22.45800018310547 -8.901000022888184,22.45800018310547 -8.901000022888184,22.45800018310547 C-6.627999782562256,20.770999908447266 -4.563000202178955,18.913000106811523 -2.7190001010894775,16.889999389648438 C5,8.42300033569336 8.901000022888184,-2.8440001010894775 8.901000022888184,-16.621999740600586 C8.901000022888184,-17.900999069213867 8.866999626159668,-19.202999114990234 8.798999786376953,-20.524999618530273z"></path></g><g opacity="1" transform="matrix(1,0,0,1,57.92900085449219,131.63900756835938)"><path fill="rgb(165,0,68)" fill-opacity="1" d=" M9.61299991607666,-26.961999893188477 C2.4860000610351562,-26.961999893188477 -4.072999954223633,-26.961999893188477 -9.61299991607666,-26.961999893188477 C-9.61299991607666,-26.961999893188477 -9.61299991607666,17.954999923706055 -9.61299991607666,17.954999923706055 C-4.293000221252441,21.908000946044922 2.1679999828338623,24.92799949645996 9.61299991607666,26.961999893188477 C9.61299991607666,26.961999893188477 9.61299991607666,-26.961999893188477 9.61299991607666,-26.961999893188477z"></path></g><g opacity="1" transform="matrix(1,0,0,1,134.8280029296875,131.63900756835938)"><path fill="rgb(165,0,68)" fill-opacity="1" d=" M-9.612000465393066,-26.961000442504883 C-9.612000465393066,-26.961000442504883 -9.612000465393066,26.961000442504883 -9.612000465393066,26.961000442504883 C-2.1649999618530273,24.927000045776367 4.294000148773193,21.906999588012695 9.612000465393066,17.954999923706055 C9.612000465393066,17.954999923706055 9.612000465393066,-26.961000442504883 9.612000465393066,-26.961000442504883 C4.072999954223633,-26.961000442504883 -2.4860000610351562,-26.961000442504883 -9.612000465393066,-26.961000442504883z"></path></g><g opacity="1" transform="matrix(1,0,0,1,77.15399932861328,133.10400390625)"><path fill="rgb(0,77,152)" fill-opacity="1" d=" M0.796999990940094,-0.7609999775886536 C0.796999990940094,-7.415999889373779 4.324999809265137,-13.246000289916992 9.612000465393066,-16.485000610351562 C9.612000465393066,-16.485000610351562 9.612000465393066,-28.427000045776367 9.612000465393066,-28.427000045776367 C2.9749999046325684,-28.427000045776367 -3.5250000953674316,-28.427000045776367 -9.612000465393066,-28.427000045776367 C-9.612000465393066,-28.427000045776367 -9.612000465393066,25.496999740600586 -9.612000465393066,25.496999740600586 C-3.7839999198913574,27.089000701904297 2.6480000019073486,28.073999404907227 9.612000465393066,28.427000045776367 C9.612000465393066,28.427000045776367 9.612000465393066,14.963000297546387 9.612000465393066,14.963000297546387 C4.324999809265137,11.723999977111816 0.796999990940094,5.89300012588501 0.796999990940094,-0.7609999775886536z"></path></g><g opacity="1" transform="matrix(1,0,0,1,115.60299682617188,133.10400390625)"><path fill="rgb(0,77,152)" fill-opacity="1" d=" M-9.612000465393066,-28.427000045776367 C-9.612000465393066,-28.427000045776367 -9.612000465393066,-16.483999252319336 -9.612000465393066,-16.483999252319336 C-4.324999809265137,-13.244999885559082 -0.796999990940094,-7.415999889373779 -0.796999990940094,-0.7609999775886536 C-0.796999990940094,5.89300012588501 -4.324999809265137,11.725000381469727 -9.612000465393066,14.96399974822998 C-9.612000465393066,14.96399974822998 -9.612000465393066,28.427000045776367 -9.612000465393066,28.427000045776367 C-2.6459999084472656,28.072999954223633 3.7850000858306885,27.086999893188477 9.612000465393066,25.496000289916992 C9.612000465393066,25.496000289916992 9.612000465393066,-28.427000045776367 9.612000465393066,-28.427000045776367 C3.5250000953674316,-28.427000045776367 -2.9749999046325684,-28.427000045776367 -9.612000465393066,-28.427000045776367z"></path></g><g opacity="1" transform="matrix(1,0,0,1,96.37799835205078,110.64800262451172)"><path fill="rgb(165,0,68)" fill-opacity="1" d=" M9.612000465393066,5.9710001945495605 C9.612000465393066,5.9710001945495605 9.612000465393066,-5.9710001945495605 9.612000465393066,-5.9710001945495605 C3.244999885559082,-5.9710001945495605 -3.244999885559082,-5.9710001945495605 -9.612000465393066,-5.9710001945495605 C-9.612000465393066,-5.9710001945495605 -9.612000465393066,5.9710001945495605 -9.612000465393066,5.9710001945495605 C-6.813000202178955,4.25600004196167 -3.5230000019073486,3.2669999599456787 0,3.2669999599456787 C3.5220000743865967,3.2669999599456787 6.813000202178955,4.256999969482422 9.612000465393066,5.9710001945495605z"></path></g><g opacity="1" transform="matrix(1,0,0,1,96.37799835205078,154.85800170898438)"><path fill="rgb(165,0,68)" fill-opacity="1" d=" M-9.612000465393066,-6.789999961853027 C-9.612000465393066,-6.789999961853027 -9.612000465393066,6.672999858856201 -9.612000465393066,6.672999858856201 C-9.27299976348877,6.690000057220459 -8.9350004196167,6.710000038146973 -8.593000411987305,6.723999977111816 C-8.593000411987305,6.723999977111816 -8.269000053405762,6.72599983215332 -8.269000053405762,6.72599983215332 C-2.131999969482422,6.758999824523926 3.6630001068115234,6.789999961853027 8.572999954223633,6.723999977111816 C8.920999526977539,6.710000038146973 9.265999794006348,6.690999984741211 9.612000465393066,6.672999858856201 C9.612000465393066,6.672999858856201 9.612000465393066,-6.789999961853027 9.612000465393066,-6.789999961853027 C6.813000202178955,-5.076000213623047 3.5220000743865967,-4.085999965667725 0,-4.085999965667725 C-3.5230000019073486,-4.085999965667725 -6.813000202178955,-5.076000213623047 -9.612000465393066,-6.789999961853027z"></path></g><g opacity="1" transform="matrix(1,0,0,1,82.9800033569336,128.88400268554688)"><path fill="rgb(237,187,0)" fill-opacity="1" d=" M3.99399995803833,6.802999973297119 C0.6600000262260437,3.7660000324249268 0.6499999761581421,-2.4049999713897705 1.5449999570846558,-6.504000186920166 C1.7940000295639038,-7.644999980926514 2.1070001125335693,-8.762999534606934 2.430000066757202,-10.039999961853027 C-1.4900000095367432,-6.8520002365112305 -3.99399995803833,-1.9889999628067017 -3.99399995803833,3.4590001106262207 C-3.99399995803833,5.765999794006348 -3.5460000038146973,7.965000152587891 -2.7309999465942383,9.979999542236328 C-2.434999942779541,10.019000053405762 -2.132999897003174,10.039999961853027 -1.8270000219345093,10.039999961853027 C0.7490000128746033,10.039999961853027 2.8510000705718994,8.848999977111816 3.99399995803833,6.802999973297119z"></path></g><g opacity="1" transform="matrix(1,0,0,1,99.14099884033203,142.84300231933594)"><path fill="rgb(237,187,0)" fill-opacity="1" d=" M5.73799991607666,-5.824999809265137 C5.166999816894531,-2.9100000858306885 2.0510001182556152,-0.7250000238418579 -0.8870000243186951,1.0269999504089355 C-3.9140000343322754,2.8329999446868896 -8.795999526977539,3.765000104904175 -12.468999862670898,3.934999942779541 C-9.696999549865723,5.802000045776367 -6.35699987411499,6.894000053405762 -2.763000011444092,6.894000053405762 C3.7960000038146973,6.894000053405762 9.506999969482422,3.26200008392334 12.468999862670898,-2.0989999771118164 C11.949000358581543,-6.389999866485596 7.870999813079834,-6.894000053405762 5.73799991607666,-5.824999809265137z"></path></g><g opacity="1" transform="matrix(1,0,0,1,92.89900207519531,138.031005859375)"><path fill="rgb(237,187,0)" fill-opacity="1" d=" M-7.574999809265137,7.739999771118164 C-3.947000026702881,7.76800012588501 1.6299999952316284,6.855000019073486 4.826000213623047,4.948999881744385 C8.956999778747559,2.4839999675750732 12.166000366210938,-0.1459999978542328 10.640999794006348,-3.7920000553131104 C9.869999885559082,-5.635000228881836 7.308000087738037,-7.76800012588501 3.9860000610351562,-5.415999889373779 C3.7739999294281006,-2.694000005722046 0.414000004529953,-0.2919999957084656 -1.9989999532699585,-0.6019999980926514 C-3.2209999561309814,-0.7590000033378601 -4.244999885559082,-1.1449999809265137 -5.098999977111816,-1.7029999494552612 C-6.454999923706055,0.6129999756813049 -8.881999969482422,1.9279999732971191 -11.746000289916992,1.9279999732971191 C-11.88700008392334,1.9279999732971191 -12.027999877929688,1.9249999523162842 -12.166999816894531,1.9170000553131104 C-11.067999839782715,4.175000190734863 -9.494000434875488,6.158999919891357 -7.574999809265137,7.739999771118164z"></path></g><g opacity="1" transform="matrix(1,0,0,1,103.76200103759766,123.12200164794922)"><path fill="rgb(237,187,0)" fill-opacity="1" d=" M-7.428999900817871,-1.6169999837875366 C-4.552000045776367,-2.809999942779541 -0.5649999976158142,-1.2589999437332153 2.4730000495910645,0.43700000643730164 C5.341000080108643,2.0390000343322754 8.336999893188477,5.03000020980835 9.977999687194824,8.170000076293945 C9.437000274658203,-0.8980000019073486 1.9509999752044678,-8.092000007629395 -7.234000205993652,-8.170000076293945 C-9.977999687194824,-6.368000030517578 -9.602999687194824,-2.9709999561309814 -7.428999900817871,-1.6169999837875366z"></path></g><g opacity="1" transform="matrix(1,0,0,1,90.41500091552734,125.83000183105469)"><path fill="rgb(237,187,0)" fill-opacity="1" d=" M5.432000160217285,6.771999835968018 C1.871000051498413,4.175000190734863 2.0889999866485596,0.08799999952316284 3.621000051498413,-2.3399999141693115 C3.996999979019165,-2.936000108718872 4.434999942779541,-3.4040000438690186 4.921000003814697,-3.763000011444092 C2.8499999046325684,-5.415999889373779 2.436000108718872,-8.621999740600586 4.441999912261963,-10.812999725341797 C1.444000005722046,-10.553000450134277 -1.3370000123977661,-9.534000396728516 -3.7060000896453857,-7.946000099182129 C-4.465000152587891,-4.679999828338623 -5.431000232696533,-1.6959999799728394 -5.382999897003174,1.715000033378601 C-5.317999839782715,6.313000202178955 -3.4149999618530273,10.055000305175781 0.6169999837875366,10.571999549865723 C2.499000072479248,10.812999725341797 5.214000225067139,8.810999870300293 5.432000160217285,6.771999835968018z"></path></g><g opacity="1" transform="matrix(1,0,0,1,103.56600189208984,130.04400634765625)"><path fill="rgb(237,187,0)" fill-opacity="1" d=" M10.131999969482422,3.8989999294281006 C9.140000343322754,0.3009999990463257 5.572000026702881,-3.677999973297119 2.1640000343322754,-5.580999851226807 C-2.0369999408721924,-7.927999973297119 -6.632999897003174,-9.204999923706055 -8.654000282287598,-6.001999855041504 C-9.951000213623047,-3.947000026702881 -10.131999969482422,-0.5509999990463257 -7.190000057220459,1.6619999408721924 C-3.190000057220459,-1.1009999513626099 0.004999999888241291,1.5859999656677246 0.9290000200271606,3.7950000762939453 C1.225000023841858,4.502999782562256 1.375,5.176000118255615 1.4010000228881836,5.815999984741211 C3.760999917984009,4.986000061035156 7.599999904632568,5.520999908447266 8.781000137329102,9.204999923706055 C9.496000289916992,7.552999973297119 9.961999893188477,5.769000053405762 10.131999969482422,3.8989999294281006z"></path></g><g opacity="1" transform="matrix(1,0,0,1,74.53399658203125,92.06800079345703)"><path fill="rgb(0,0,0)" fill-opacity="1" d=" M5.988999843597412,-8.54699993133545 C5.988999843597412,-8.54699993133545 -6.168000221252441,-8.54699993133545 -6.168000221252441,-8.54699993133545 C-6.168000221252441,-8.54699993133545 -6.168000221252441,8.54699993133545 -6.168000221252441,8.54699993133545 C-6.168000221252441,8.54699993133545 -2.4639999866485596,8.54699993133545 -2.4639999866485596,8.54699993133545 C-2.4639999866485596,8.54699993133545 -2.4639999866485596,1.8329999446868896 -2.4639999866485596,1.49399995803833 C-2.131999969482422,1.49399995803833 2.5810000896453857,1.49399995803833 2.5810000896453857,1.49399995803833 C2.5810000896453857,1.49399995803833 2.5810000896453857,-2.115000009536743 2.5810000896453857,-2.115000009536743 C2.5810000896453857,-2.115000009536743 -2.131999969482422,-2.115000009536743 -2.4639999866485596,-2.115000009536743 C-2.4639999866485596,-2.4130001068115234 -2.4639999866485596,-4.616000175476074 -2.4639999866485596,-4.914000034332275 C-2.121999979019165,-4.914000034332275 6.168000221252441,-4.914000034332275 6.168000221252441,-4.914000034332275 C6.168000221252441,-4.914000034332275 6.168000221252441,-8.54699993133545 6.168000221252441,-8.54699993133545 C6.168000221252441,-8.54699993133545 5.988999843597412,-8.54699993133545 5.988999843597412,-8.54699993133545z"></path></g><g opacity="1" transform="matrix(1,0,0,1,94.58100128173828,92.06800079345703)"><path fill="rgb(0,0,0)" fill-opacity="1" d=" M-6.98799991607666,0 C-6.98799991607666,5.3520002365112305 -4.045000076293945,8.8100004196167 0.5070000290870667,8.8100004196167 C3.4749999046325684,8.8100004196167 5.611999988555908,7.505000114440918 6.860000133514404,4.932000160217285 C6.860000133514404,4.932000160217285 6.932000160217285,4.784999847412109 6.932000160217285,4.784999847412109 C6.932000160217285,4.784999847412109 3.815999984741211,2.936000108718872 3.815999984741211,2.936000108718872 C3.815999984741211,2.936000108718872 3.7249999046325684,3.0889999866485596 3.7249999046325684,3.0889999866485596 C2.8369998931884766,4.577000141143799 1.9900000095367432,5.130000114440918 0.6019999980926514,5.130000114440918 C-1.6649999618530273,5.130000114440918 -3.187999963760376,3.068000078201294 -3.187999963760376,0 C-3.187999963760376,-3.1640000343322754 -1.7450000047683716,-5.130000114440918 0.5789999961853027,-5.130000114440918 C1.9279999732971191,-5.130000114440918 2.877000093460083,-4.565999984741211 3.4800000190734863,-3.4079999923706055 C3.4800000190734863,-3.4079999923706055 3.559000015258789,-3.256999969482422 3.559000015258789,-3.256999969482422 C3.559000015258789,-3.256999969482422 6.98799991607666,-4.840000152587891 6.98799991607666,-4.840000152587891 C6.98799991607666,-4.840000152587891 6.908999919891357,-5.002999782562256 6.908999919891357,-5.002999782562256 C5.703999996185303,-7.493000030517578 3.5320000648498535,-8.8100004196167 0.6259999871253967,-8.8100004196167 C-3.8570001125335693,-8.8100004196167 -6.98799991607666,-5.186999797821045 -6.98799991607666,0z"></path></g><g opacity="1" transform="matrix(1,0,0,1,117.43399810791016,92.06800079345703)"><path fill="rgb(0,0,0)" fill-opacity="1" d=" M0.9440000057220459,5.010000228881836 C0.9440000057220459,5.010000228881836 -2.994999885559082,5.010000228881836 -3.3239998817443848,5.010000228881836 C-3.3239998817443848,4.696000099182129 -3.3239998817443848,1.3530000448226929 -3.3239998817443848,1.0390000343322754 C-2.994999885559082,1.0390000343322754 0.9440000057220459,1.0390000343322754 0.9440000057220459,1.0390000343322754 C2.4539999961853027,1.0390000343322754 3.1570000648498535,1.6670000553131104 3.1570000648498535,3.013000011444092 C3.1570000648498535,4.318999767303467 2.3919999599456787,5.010000228881836 0.9440000057220459,5.010000228881836z M-3.3239998817443848,-5.105000019073486 C-2.996999979019165,-5.105000019073486 0.753000020980835,-5.105000019073486 0.753000020980835,-5.105000019073486 C2.4159998893737793,-5.105000019073486 2.630000114440918,-4.343999862670898 2.630000114440918,-3.681999921798706 C2.630000114440918,-2.740000009536743 2.071000099182129,-2.2820000648498535 0.9200000166893005,-2.2820000648498535 C0.9200000166893005,-2.2820000648498535 -2.994999885559082,-2.2820000648498535 -3.3239998817443848,-2.2820000648498535 C-3.3239998817443848,-2.5810000896453857 -3.3239998817443848,-4.806000232696533 -3.3239998817443848,-5.105000019073486z M4.741000175476074,-0.7110000252723694 C5.776000022888184,-1.4450000524520874 6.383999824523926,-2.5980000495910645 6.383999824523926,-3.946000099182129 C6.383999824523926,-6.827000141143799 4.331999778747559,-8.54699993133545 0.8970000147819519,-8.54699993133545 C0.8970000147819519,-8.54699993133545 -6.7779998779296875,-8.54699993133545 -6.7779998779296875,-8.54699993133545 C-6.7779998779296875,-8.54699993133545 -6.955999851226807,-8.54699993133545 -6.955999851226807,-8.54699993133545 C-6.955999851226807,-8.54699993133545 -6.955999851226807,8.54699993133545 -6.955999851226807,8.54699993133545 C-6.955999851226807,8.54699993133545 0.824999988079071,8.54699993133545 0.824999988079071,8.54699993133545 C4.664999961853027,8.54699993133545 6.955999851226807,6.460999965667725 6.955999851226807,2.9649999141693115 C6.955999851226807,1.3279999494552612 6.138999938964844,0.017000000923871994 4.741000175476074,-0.7110000252723694z"></path></g><g opacity="1" transform="matrix(1,0,0,1,96.37799835205078,51.40800094604492)"><path fill="rgb(0,0,0)" fill-opacity="1" d=" M25.847999572753906,-28.999000549316406 C17.56599998474121,-23.98900032043457 9.109999656677246,-21.551000595092773 -0.0010000000474974513,-21.54400062561035 C-9.109999656677246,-21.551000595092773 -17.565000534057617,-23.98900032043457 -25.847000122070312,-28.999000549316406 C-25.847000122070312,-28.999000549316406 -26.12299919128418,-29.166000366210938 -26.12299919128418,-29.166000366210938 C-26.12299919128418,-29.166000366210938 -26.405000686645508,-29.006999969482422 -26.405000686645508,-29.006999969482422 C-35.84000015258789,-23.674999237060547 -44.14099884033203,-22.632999420166016 -55.29100036621094,-22.632999420166016 C-57.97100067138672,-22.632999420166016 -60.73500061035156,-22.902000427246094 -63.507999420166016,-23.433000564575195 C-63.507999420166016,-23.433000564575195 -64.7030029296875,-23.660999298095703 -64.7030029296875,-23.660999298095703 C-64.7030029296875,-23.660999298095703 -64.08899688720703,-22.611000061035156 -64.08899688720703,-22.611000061035156 C-52.63399887084961,-3.007999897003174 -56.70100021362305,15.944999694824219 -62.12900161743164,28.392000198364258 C-62.12900161743164,28.392000198364258 -62.46699905395508,29.166000366210938 -62.46699905395508,29.166000366210938 C-62.46699905395508,29.166000366210938 62.46799850463867,29.166000366210938 62.46799850463867,29.166000366210938 C62.46799850463867,29.166000366210938 62.12900161743164,28.392000198364258 62.12900161743164,28.392000198364258 C56.70100021362305,15.944999694824219 52.6349983215332,-3.007999897003174 64.08899688720703,-22.611000061035156 C64.08899688720703,-22.611000061035156 64.7030029296875,-23.660999298095703 64.7030029296875,-23.660999298095703 C64.7030029296875,-23.660999298095703 63.50899887084961,-23.433000564575195 63.50899887084961,-23.433000564575195 C60.736000061035156,-22.902000427246094 57.970001220703125,-22.632999420166016 55.29100036621094,-22.632999420166016 C44.14099884033203,-22.632999420166016 35.84000015258789,-23.674999237060547 26.405000686645508,-29.006999969482422 C26.405000686645508,-29.006999969482422 26.124000549316406,-29.166000366210938 26.124000549316406,-29.166000366210938 C26.124000549316406,-29.166000366210938 25.847999572753906,-28.999000549316406 25.847999572753906,-28.999000549316406z"></path></g><g opacity="1" transform="matrix(1,0,0,1,45.91699981689453,36.479000091552734)"><path fill="rgb(255,254,255)" fill-opacity="1" d=" M12.142999649047852,-8.175000190734863 C6.910999774932861,-6.934000015258789 1.4880000352859497,-6.5980000495910645 -4.829999923706055,-6.5980000495910645 C-7.218999862670898,-6.5980000495910645 -9.675999641418457,-6.84499979019165 -12.142999649047852,-7.256999969482422 C-9.215999603271484,-2.0239999294281006 -7.353000164031982,3.1559998989105225 -6.296999931335449,8.175000190734863 C0.4880000054836273,8.175000190734863 11.859999656677246,8.175000190734863 12.142999649047852,8.175000190734863 C12.142999649047852,7.938000202178955 12.142999649047852,-0.9010000228881836 12.142999649047852,-8.175000190734863z"></path></g><g opacity="1" transform="matrix(1,0,0,1,86.31900024414062,35.77399826049805)"><path fill="rgb(255,254,255)" fill-opacity="1" d=" M9.505999565124512,8.880999565124512 C9.505999565124512,8.880999565124512 9.505999565124512,-4.813000202178955 9.505999565124512,-4.813000202178955 C2.890000104904175,-4.888000011444092 -3.38700008392334,-6.23199987411499 -9.505999565124512,-8.880999565124512 C-9.505999565124512,-1.3949999809265137 -9.505999565124512,8.628000259399414 -9.505999565124512,8.880999565124512 C-9.317999839782715,8.880999565124512 -0.23199999332427979,8.880999565124512 9.505999565124512,8.880999565124512z"></path></g><g opacity="1" transform="matrix(1,0,0,1,46.82099914550781,71.43800354003906)"><path fill="rgb(255,254,255)" fill-opacity="1" d=" M-6.677999973297119,-8.029999732971191 C-7.548999786376953,-2.0280001163482666 -9.286999702453613,3.4130001068115234 -11.23900032043457,8.029999732971191 C-10.798999786376953,8.029999732971191 -1.746999979019165,8.029999732971191 11.23900032043457,8.029999732971191 C11.23900032043457,1.156000018119812 11.23900032043457,-7.7820000648498535 11.23900032043457,-8.029999732971191 C10.963000297546387,-8.029999732971191 0.15199999511241913,-8.029999732971191 -6.677999973297119,-8.029999732971191z"></path></g><g opacity="1" transform="matrix(1,0,0,1,86.31900024414062,71.43800354003906)"><path fill="rgb(255,255,255)" fill-opacity="1" d=" M-9.505999565124512,8.029999732971191 C-3.369999885559082,8.029999732971191 3.063999891281128,8.029999732971191 9.505999565124512,8.029999732971191 C9.505999565124512,8.029999732971191 9.505999565124512,-8.029999732971191 9.505999565124512,-8.029999732971191 C-0.23199999332427979,-8.029999732971191 -9.317999839782715,-8.029999732971191 -9.505999565124512,-8.029999732971191 C-9.505999565124512,-7.7820000648498535 -9.505999565124512,1.156000018119812 -9.505999565124512,8.029999732971191z"></path></g><g opacity="1" transform="matrix(1,0,0,1,67.72200012207031,51.48899841308594)"><path fill="rgb(219,0,48)" fill-opacity="1" d=" M9.09000015258789,-6.835000038146973 C9.09000015258789,-7.0879998207092285 9.09000015258789,-17.110000610351562 9.09000015258789,-24.59600067138672 C6.879000186920166,-25.55299949645996 4.689000129699707,-26.677000045776367 2.510999917984009,-27.979000091552734 C-1.6519999504089355,-25.658000946044922 -5.60099983215332,-24.14900016784668 -9.663000106811523,-23.184999465942383 C-9.663000106811523,-15.91100025177002 -9.663000106811523,-7.072000026702881 -9.663000106811523,-6.835000038146973 C-9.946000099182129,-6.835000038146973 -21.31800079345703,-6.835000038146973 -28.10300064086914,-6.835000038146973 C-27.33099937438965,-3.1630001068115234 -26.988000869750977,0.42399999499320984 -26.988000869750977,3.88100004196167 C-26.988000869750977,6.651000022888184 -27.204999923706055,9.336000442504883 -27.579999923706055,11.918999671936035 C-20.75,11.918999671936035 -9.939000129699707,11.918999671936035 -9.663000106811523,11.918999671936035 C-9.663000106811523,12.166999816894531 -9.663000106811523,21.104999542236328 -9.663000106811523,27.979000091552734 C-4.026000022888184,27.979000091552734 2.3529999256134033,27.979000091552734 9.09000015258789,27.979000091552734 C9.09000015258789,21.104999542236328 9.09000015258789,12.166999816894531 9.09000015258789,11.918999671936035 C9.277999877929688,11.918999671936035 18.364999771118164,11.918999671936035 28.10300064086914,11.918999671936035 C28.10300064086914,11.918999671936035 28.10300064086914,-6.835000038146973 28.10300064086914,-6.835000038146973 C18.364999771118164,-6.835000038146973 9.277999877929688,-6.835000038146973 9.09000015258789,-6.835000038146973z"></path></g><g opacity="1" transform="matrix(1,0,0,1,125.79199981689453,51.48899841308594)"><path fill="rgb(255,237,2)" fill-opacity="1" d=" M-3.2690000534057617,-27.979000091552734 C-3.2780001163482666,-27.972999572753906 -3.2869999408721924,-27.9689998626709 -3.2960000038146973,-27.964000701904297 C-3.2960000038146973,-27.964000701904297 -3.2960000038146973,27.979000091552734 -3.2960000038146973,27.979000091552734 C-1.0329999923706055,27.979000091552734 1.1690000295639038,27.979000091552734 3.2960000038146973,27.979000091552734 C3.2960000038146973,27.979000091552734 3.2960000038146973,-24.910999298095703 3.2960000038146973,-24.910999298095703 C1.1360000371932983,-25.729999542236328 -1.034999966621399,-26.733999252319336 -3.2690000534057617,-27.979000091552734z"></path></g><g opacity="1" transform="matrix(1,0,0,1,112.60700225830078,53.18899917602539)"><path fill="rgb(255,237,2)" fill-opacity="1" d=" M-3.2960000038146973,-23.957000732421875 C-3.2960000038146973,-23.957000732421875 -3.2960000038146973,26.27899932861328 -3.2960000038146973,26.27899932861328 C-1.0700000524520874,26.27899932861328 1.13100004196167,26.27899932861328 3.2960000038146973,26.27899932861328 C3.2960000038146973,26.27899932861328 3.2960000038146973,-26.27899932861328 3.2960000038146973,-26.27899932861328 C1.121999979019165,-25.34000015258789 -1.0729999542236328,-24.56800079345703 -3.2960000038146973,-23.957000732421875z"></path></g><g opacity="1" transform="matrix(1,0,0,1,99.82499694824219,55.01100158691406)"><path fill="rgb(255,237,2)" fill-opacity="1" d=" M-2.8940000534057617,-24.051000595092773 C-2.8940000534057617,-24.051000595092773 -2.8940000534057617,24.457000732421875 -2.8940000534057617,24.457000732421875 C-0.9610000252723694,24.457000732421875 0.9710000157356262,24.457000732421875 2.8940000534057617,24.457000732421875 C2.8940000534057617,24.457000732421875 2.8940000534057617,-24.457000732421875 2.8940000534057617,-24.457000732421875 C0.9909999966621399,-24.211999893188477 -0.9359999895095825,-24.072999954223633 -2.8940000534057617,-24.051000595092773z"></path></g><g opacity="1" transform="matrix(1,0,0,1,138.9770050048828,53.99300003051758)"><path fill="rgb(255,237,2)" fill-opacity="1" d=" M-3.2960000038146973,-25.475000381469727 C-3.2960000038146973,-25.475000381469727 -3.2960000038146973,25.475000381469727 -3.2960000038146973,25.475000381469727 C-0.9520000219345093,25.475000381469727 1.253999948501587,25.475000381469727 3.2960000038146973,25.475000381469727 C3.2960000038146973,25.475000381469727 3.2960000038146973,-24.483999252319336 3.2960000038146973,-24.483999252319336 C1.0290000438690186,-24.69499969482422 -1.152999997138977,-25.014999389648438 -3.2960000038146973,-25.475000381469727z"></path></g><g opacity="1" transform="matrix(1,0,0,1,153.9239959716797,54.345001220703125)"><path fill="rgb(255,237,2)" fill-opacity="1" d=" M-1.9019999504089355,1.024999976158142 C-1.9019999504089355,-7.158999919891357 -0.009999999776482582,-16.06100082397461 5.058000087738037,-25.12299919128418 C2.5910000801086426,-24.711000442504883 0.1340000033378601,-24.464000701904297 -2.255000114440918,-24.464000701904297 C-3.2109999656677246,-24.464000701904297 -4.139999866485596,-24.47599983215332 -5.058000087738037,-24.493000030517578 C-5.058000087738037,-24.493000030517578 -5.058000087738037,25.12299919128418 -5.058000087738037,25.12299919128418 C-0.061000000685453415,25.12299919128418 2.999000072479248,25.12299919128418 3.25,25.12299919128418 C0.4580000042915344,18.51799964904785 -1.9019999504089355,10.234000205993652 -1.9019999504089355,1.024999976158142z"></path></g><g opacity="1" transform="matrix(1,0,0,1,145.56900024414062,54.48899841308594)"><path fill="rgb(219,0,48)" fill-opacity="1" d=" M-3.2960000038146973,-24.979000091552734 C-3.2960000038146973,-24.979000091552734 -3.2960000038146973,24.979000091552734 -3.2960000038146973,24.979000091552734 C-0.8450000286102295,24.979000091552734 1.3700000047683716,24.979000091552734 3.2960000038146973,24.979000091552734 C3.2960000038146973,24.979000091552734 3.2960000038146973,-24.63599967956543 3.2960000038146973,-24.63599967956543 C0.9990000128746033,-24.68000030517578 -1.187000036239624,-24.784000396728516 -3.2960000038146973,-24.979000091552734z"></path></g><g opacity="1" transform="matrix(1,0,0,1,106.01499938964844,54.349998474121094)"><path fill="rgb(219,0,48)" fill-opacity="1" d=" M-3.2960000038146973,-23.797000885009766 C-3.2960000038146973,-23.797000885009766 -3.2960000038146973,25.118000030517578 -3.2960000038146973,25.118000030517578 C-1.0839999914169312,25.118000030517578 1.1180000305175781,25.118000030517578 3.2960000038146973,25.118000030517578 C3.2960000038146973,25.118000030517578 3.2960000038146973,-25.118000030517578 3.2960000038146973,-25.118000030517578 C1.1269999742507935,-24.523000717163086 -1.0670000314712524,-24.08300018310547 -3.2960000038146973,-23.797000885009766z"></path></g><g opacity="1" transform="matrix(1,0,0,1,119.1989974975586,51.49700164794922)"><path fill="rgb(219,0,48)" fill-opacity="1" d=" M-3.2960000038146973,-24.586999893188477 C-3.2960000038146973,-24.586999893188477 -3.2960000038146973,27.97100067138672 -3.2960000038146973,27.97100067138672 C-1.0540000200271606,27.97100067138672 1.1469999551773071,27.97100067138672 3.2960000038146973,27.97100067138672 C3.2960000038146973,27.97100067138672 3.2960000038146973,-27.97100067138672 3.2960000038146973,-27.97100067138672 C1.1139999628067017,-26.667999267578125 -1.0800000429153442,-25.54400062561035 -3.2960000038146973,-24.586999893188477z"></path></g><g opacity="1" transform="matrix(1,0,0,1,132.38400268554688,53.02299880981445)"><path fill="rgb(219,0,48)" fill-opacity="1" d=" M-3.296999931335449,-26.44499969482422 C-3.296999931335449,-26.44499969482422 -3.296999931335449,26.44499969482422 -3.296999931335449,26.44499969482422 C-1.003999948501587,26.44499969482422 1.2020000219345093,26.44499969482422 3.296999931335449,26.44499969482422 C3.296999931335449,26.44499969482422 3.296999931335449,-24.5049991607666 3.296999931335449,-24.5049991607666 C1.0759999752044678,-24.98200035095215 -1.1059999465942383,-25.61400032043457 -3.296999931335449,-26.44499969482422z"></path></g></g></g></svg>